<svg width="11" height="11" viewBox="0 0 11 11" fill="none" xmlns="http://www.w3.org/2000/svg">
<path id="clock ico" d="M5.5 0C4.4122 0 3.34884 0.322569 2.44437 0.926917C1.5399 1.53126 0.834947 2.39025 0.418665 3.39524C0.00238305 4.40023 -0.106535 5.5061 0.105683 6.573C0.317902 7.63989 0.841726 8.6199 1.61091 9.38908C2.3801 10.1583 3.36011 10.6821 4.42701 10.8943C5.4939 11.1065 6.59977 10.9976 7.60476 10.5813C8.60975 10.1651 9.46873 9.4601 10.0731 8.55563C10.6774 7.65116 11 6.5878 11 5.5C10.9983 4.04182 10.4183 2.64384 9.38725 1.61275C8.35616 0.581666 6.95818 0.00166821 5.5 0ZM5.5 9.9C4.62976 9.9 3.77907 9.64194 3.05549 9.15846C2.33192 8.67499 1.76796 7.9878 1.43493 7.1838C1.10191 6.37981 1.01477 5.49512 1.18455 4.6416C1.35432 3.78808 1.77338 3.00408 2.38873 2.38873C3.00408 1.77338 3.78809 1.35432 4.6416 1.18454C5.49512 1.01477 6.37981 1.1019 7.18381 1.43493C7.9878 1.76796 8.67499 2.33191 9.15847 3.05549C9.64194 3.77907 9.9 4.62976 9.9 5.5C9.89866 6.66654 9.43467 7.78492 8.6098 8.60979C7.78492 9.43466 6.66654 9.89866 5.5 9.9ZM6.05 5.36195V2.75C6.05 2.60413 5.99205 2.46424 5.88891 2.36109C5.78576 2.25795 5.64587 2.2 5.5 2.2C5.35413 2.2 5.21424 2.25795 5.11109 2.36109C5.00795 2.46424 4.95 2.60413 4.95 2.75V5.5C4.95008 5.59058 4.97239 5.67975 5.01499 5.75969L5.83999 7.29905C5.90886 7.42768 6.02602 7.52369 6.16568 7.56594C6.30534 7.6082 6.45606 7.59324 6.58469 7.52437C6.71333 7.45549 6.80933 7.33834 6.85159 7.19868C6.89384 7.05902 6.87889 6.90829 6.81001 6.77966L6.05 5.36195Z" fill="white"/>
</svg>
