<svg width="44" height="41" viewBox="0 0 44 41" fill="none" xmlns="http://www.w3.org/2000/svg">
<g id="Emergency Ico" filter="url(#filter0_d_16_38)">
<g id="&#60;Group&#62;">
<g id="&#60;Group&#62;_2">
<path id="&#60;Path&#62;" d="M31.1647 28.226H11.88V30.6366H31.1647V28.226Z" fill="#93C2FF"/>
</g>
<g id="&#60;Group&#62;_3">
<path id="&#60;Path&#62;_2" d="M31.1647 28.226H11.88L15.9394 25.854H27.1053L31.1647 28.226Z" fill="#4D9AFF"/>
</g>
<g id="&#60;Group&#62;_4">
<path id="&#60;Compound Path&#62;" d="M27.1052 20.5121V25.854H15.9393V20.5121C15.9393 19.0314 16.5275 17.6114 17.5745 16.5644C18.6215 15.5174 20.0416 14.9292 21.5223 14.9292C23.0029 14.9292 24.423 15.5174 25.47 16.5644C26.517 17.6114 27.1052 19.0314 27.1052 20.5121ZM23.9328 21.163V19.6202H22.2936V17.981H20.7509V19.6202H19.1117V21.163H20.7509V22.8022H22.2936V21.163H23.9328Z" fill="#93C2FF"/>
</g>
<g id="&#60;Group&#62;_5">
<path id="&#60;Path&#62;_3" d="M23.933 19.6202V21.163H22.2938V22.8022H20.751V21.163H19.1118V19.6202H20.751V17.981H22.2938V19.6202H23.933Z" fill="#4D9AFF"/>
</g>
</g>
<g id="&#60;Group&#62;_6">
<path id="&#60;Compound Path&#62;_2" d="M31.5361 28.1944C31.5356 28.1886 31.5349 28.1828 31.5342 28.1771C31.5334 28.1714 31.5325 28.1652 31.5314 28.1592C31.5303 28.1533 31.5288 28.1461 31.5273 28.1397C31.5261 28.1346 31.5248 28.1296 31.5234 28.1246C31.5215 28.1178 31.5194 28.1111 31.5171 28.1045C31.5155 28.0998 31.5137 28.0951 31.5119 28.0905C31.5094 28.084 31.5067 28.0778 31.5039 28.0715C31.5017 28.0666 31.4992 28.0617 31.4969 28.0569C31.4945 28.052 31.4911 28.0458 31.488 28.0405C31.4849 28.0351 31.4817 28.0298 31.4783 28.0246C31.475 28.0194 31.4723 28.0152 31.469 28.011C31.465 28.0054 31.4609 27.9999 31.4567 27.9945C31.4536 27.9906 31.4504 27.9868 31.4474 27.983C31.4427 27.9777 31.438 27.9725 31.4331 27.9673C31.4296 27.9636 31.4259 27.96 31.4221 27.9564C31.4175 27.9518 31.4124 27.9473 31.4073 27.943C31.4022 27.9387 31.398 27.9353 31.3933 27.9316C31.3886 27.9279 31.384 27.9246 31.3793 27.9212C31.3734 27.917 31.3672 27.9131 31.361 27.9092C31.3582 27.9075 31.363 27.9055 31.3601 27.9039L27.4928 25.6398V20.5121C27.4902 18.9301 26.8594 17.4139 25.739 16.297C24.6187 15.18 23.1006 14.5538 21.5186 14.556C18.2344 14.556 15.5516 17.228 15.5516 20.5121V25.6398L11.6844 27.9038C11.6815 27.9054 11.6826 27.9074 11.6797 27.9091C11.6735 27.913 11.6692 27.9169 11.6632 27.9211C11.6586 27.9245 11.6548 27.928 11.6502 27.9315C11.6455 27.9351 11.6412 27.939 11.6366 27.9429C11.632 27.9468 11.6268 27.9518 11.622 27.9564C11.6183 27.9599 11.6147 27.9635 11.6111 27.9672C11.6062 27.9723 11.6015 27.9776 11.5971 27.9829C11.5939 27.9867 11.5907 27.9905 11.5878 27.9944C11.5835 27.9999 11.5795 28.0053 11.5755 28.0109C11.5724 28.0156 11.5693 28.0199 11.5662 28.0245C11.563 28.0291 11.5596 28.035 11.5565 28.0404C11.5534 28.0458 11.5505 28.0512 11.5476 28.0568C11.5448 28.0623 11.543 28.0665 11.5406 28.0715C11.5377 28.0777 11.5351 28.084 11.5326 28.0904C11.5308 28.0951 11.529 28.0997 11.5274 28.1044C11.5251 28.111 11.523 28.1177 11.5211 28.1245C11.5197 28.1295 11.5184 28.1345 11.5172 28.1396C11.5157 28.146 11.5143 28.1525 11.5131 28.1591C11.5119 28.1658 11.5112 28.171 11.5103 28.177C11.5095 28.183 11.5089 28.1885 11.5084 28.1943C11.5078 28.2016 11.5009 28.2089 11.5007 28.2161C11.5007 28.2194 11.4935 28.2226 11.4935 28.2259V30.6365C11.4935 30.8426 11.6739 31 11.8799 31H31.1646C31.3706 31 31.551 30.8426 31.551 30.6365V28.226C31.551 28.2227 31.5439 28.2195 31.5438 28.2162C31.5436 28.209 31.537 28.2017 31.5361 28.1944ZM16.0403 26.2423H27.0041L29.7863 27.8748H13.2582L16.0403 26.2423ZM16.298 20.5121C16.298 17.6395 18.6423 15.3023 21.5149 15.3023C22.8991 15.3008 24.2274 15.8485 25.2082 16.8252C26.1891 17.8019 26.7423 19.1279 26.7465 20.5121V25.4959H16.298V20.5121ZM30.8046 30.2538H12.2398V28.6212H30.8046V30.2538Z" fill="#0064E6"/>
<path id="&#60;Compound Path&#62;_3" d="M23.9327 19.2455H22.6882V17.981C22.6882 17.7749 22.4996 17.6129 22.2935 17.6129H20.7507C20.5447 17.6129 20.356 17.7749 20.356 17.981V19.2455H19.1115C19.0108 19.2453 18.914 19.2843 18.8415 19.3542C18.7691 19.4242 18.7267 19.5196 18.7234 19.6202V21.163C18.727 21.2629 18.7697 21.3575 18.8423 21.4263C18.9148 21.4952 19.0115 21.5328 19.1115 21.5311H20.356V22.8022C20.356 23.0083 20.5447 23.1637 20.7507 23.1637H22.2935C22.4996 23.1637 22.6882 23.0083 22.6882 22.8022V21.5311H23.9327C24.0327 21.5328 24.1294 21.4952 24.202 21.4263C24.2745 21.3575 24.3172 21.2629 24.3208 21.163V19.6202C24.3175 19.5196 24.2751 19.4242 24.2027 19.3542C24.1302 19.2843 24.0334 19.2453 23.9327 19.2455ZM23.5745 20.7848H22.2935C22.0874 20.7848 21.9419 20.9569 21.9419 21.163V22.4174H21.1023V21.163C21.1023 20.9569 20.9568 20.7848 20.7507 20.7848H19.4697V19.9918H20.7507C20.9568 19.9918 21.1023 19.8263 21.1023 19.6202V18.3592H21.9419V19.6202C21.9419 19.8263 22.0874 19.9918 22.2935 19.9918H23.5745V20.7848Z" fill="#0064E6"/>
<path id="&#60;Path&#62;_4" d="M21.5222 13.7596C21.6212 13.7596 21.7161 13.7203 21.7861 13.6503C21.856 13.5803 21.8953 13.4854 21.8953 13.3865V10.3732C21.8953 10.2742 21.856 10.1793 21.7861 10.1093C21.7161 10.0393 21.6212 10 21.5222 10C21.4232 10 21.3283 10.0393 21.2583 10.1093C21.1883 10.1793 21.149 10.2742 21.149 10.3732V13.3865C21.149 13.4854 21.1883 13.5803 21.2583 13.6503C21.3283 13.7203 21.4232 13.7596 21.5222 13.7596ZM32.6711 21.1579H29.6578C29.5589 21.1579 29.4639 21.1972 29.394 21.2672C29.324 21.3372 29.2847 21.4321 29.2847 21.5311C29.2847 21.6301 29.324 21.725 29.394 21.795C29.4639 21.8649 29.5589 21.9043 29.6578 21.9043H32.6711C32.7701 21.9043 32.865 21.8649 32.935 21.795C33.005 21.725 33.0443 21.6301 33.0443 21.5311C33.0443 21.4321 33.005 21.3372 32.935 21.2672C32.865 21.1972 32.7701 21.1579 32.6711 21.1579ZM13.7596 21.5311C13.7596 21.4321 13.7203 21.3372 13.6503 21.2672C13.5803 21.1972 13.4854 21.1579 13.3865 21.1579H10.3732C10.2742 21.1579 10.1793 21.1972 10.1093 21.2672C10.0393 21.3372 10 21.4321 10 21.5311C10 21.6301 10.0393 21.725 10.1093 21.795C10.1793 21.8649 10.2742 21.9043 10.3732 21.9043H13.3865C13.4854 21.9043 13.5803 21.8649 13.6503 21.795C13.7203 21.725 13.7596 21.6301 13.7596 21.5311ZM15.5042 16.0344C15.5742 16.1044 15.6691 16.1437 15.7681 16.1437C15.8671 16.1437 15.962 16.1044 16.032 16.0344C16.102 15.9644 16.1413 15.8695 16.1413 15.7705C16.1413 15.6716 16.102 15.5767 16.032 15.5067L13.901 13.3757C13.8311 13.3057 13.7361 13.2664 13.6372 13.2664C13.5382 13.2664 13.4433 13.3057 13.3733 13.3757C13.3033 13.4457 13.264 13.5406 13.264 13.6395C13.264 13.7385 13.3033 13.8334 13.3732 13.9034L15.5042 16.0344ZM27.2763 16.1436C27.3253 16.1436 27.3738 16.134 27.4191 16.1152C27.4644 16.0965 27.5055 16.069 27.5401 16.0343L29.6711 13.9034C29.7061 13.8688 29.7339 13.8277 29.753 13.7823C29.772 13.737 29.7819 13.6883 29.782 13.6391C29.7822 13.5899 29.7726 13.5412 29.7538 13.4957C29.7351 13.4502 29.7075 13.4089 29.6727 13.3741C29.6379 13.3393 29.5966 13.3117 29.5511 13.293C29.5056 13.2742 29.4569 13.2647 29.4077 13.2648C29.3585 13.265 29.3098 13.2748 29.2645 13.2939C29.2191 13.3129 29.1779 13.3407 29.1434 13.3757L27.0123 15.5067C26.9602 15.5589 26.9246 15.6253 26.9102 15.6977C26.8959 15.7701 26.9032 15.8451 26.9315 15.9133C26.9597 15.9815 27.0076 16.0398 27.0689 16.0808C27.1303 16.1218 27.2024 16.1436 27.2762 16.1437L27.2763 16.1436Z" fill="#0064E6"/>
</g>
</g>
<defs>
<filter id="filter0_d_16_38" x="0" y="0" width="43.0443" height="41" filterUnits="userSpaceOnUse" color-interpolation-filters="sRGB">
<feFlood flood-opacity="0" result="BackgroundImageFix"/>
<feColorMatrix in="SourceAlpha" type="matrix" values="0 0 0 0 0 0 0 0 0 0 0 0 0 0 0 0 0 0 127 0" result="hardAlpha"/>
<feOffset/>
<feGaussianBlur stdDeviation="5"/>
<feComposite in2="hardAlpha" operator="out"/>
<feColorMatrix type="matrix" values="0 0 0 0 0 0 0 0 0 0.391422 0 0 0 0 0.903281 0 0 0 0.5 0"/>
<feBlend mode="normal" in2="BackgroundImageFix" result="effect1_dropShadow_16_38"/>
<feBlend mode="normal" in="SourceGraphic" in2="effect1_dropShadow_16_38" result="shape"/>
</filter>
</defs>
</svg>
